<svg xmlns="http://www.w3.org/2000/svg" version="1.1" xmlns:xlink="http://www.w3.org/1999/xlink" xmlns:svgjs="http://svgjs.dev/svgjs" width="100%" height="100%" viewBox="0 0 1000 600"><rect width="1000" height="600" x="0" y="0" fill="#eb2188"/><g><rect width="333.3333333333333" height="333.3333333333333" rx="13.333333333333334" ry="13.333333333333334" y="279.5742081691502" fill="#080a52" transform="matrix(0.4857161164109686,0,0,0.48571611641096857,0,83.25362691646814)" x="257.3521423339844"/><path d="M444.1314578882266 450.57484891254023L399.7044249030133 450.57484891254023L399.7044249030133 507.48963918526385Q399.7044249030133 515.0998253910642 396.4135335707753 518.1850360150374Q393.1226422385373 521.240863680687 386.5702425323848 521.240863680687L386.5702425323848 521.240863680687Q376.8444833272885 521.240863680687 376.8444833272885 510.66299868420765L376.8444833272885 510.66299868420765L376.8444833272885 381.8187264354245Q376.8444833272885 371.24086143894516 386.5702425323848 371.24086143894516L386.5702425323848 371.24086143894516L458.4997245084444 371.24086143894516Q464.6407627980671 371.24086143894516 467.9316541303051 372.7393923134464Q471.1931625042196 374.2085402296241 471.1931625042196 379.086111311334L471.1931625042196 379.086111311334L471.1931625042196 395.3642702225828Q471.1931625042196 405.9421352190621 462.1138283822415 405.9421352190621L462.1138283822415 405.9421352190621Q456.17847080088364 405.9421352190621 453.0051113019398 402.8863075534125Q449.831751802996 399.8010969294394 449.831751802996 392.190910723639L449.831751802996 392.190910723639L449.831751802996 382.46515151854265L399.7044249030133 382.46515151854265L399.7044249030133 438.939197416413L444.1314578882266 438.939197416413Q450.0374325112609 438.939197416413 450.0374325112609 444.8745549977708L450.0374325112609 444.8745549977708Q450.0374325112609 450.57484891254023 444.1314578882266 450.57484891254023L444.1314578882266 450.57484891254023Z " fill="#eb2188" transform="matrix(0.4857161164109686,0,0,0.48571611641096857,0,83.25362691646814)"/><path d="M690.5366839958398 390.84119946055927L690.5366839958398 454.04273225960435Q690.5366839958398 466.43644017142515 697.7433168982536 473.49426354488054Q704.9286912965305 480.53082841419905 717.641276770405 480.53082841419905L717.641276770405 480.53082841419905Q725.7407668465692 480.53082841419905 731.4805629635359 477.0019167274713Q737.2203590805027 473.49426354488054 740.2815836762184 467.2867803369017Q743.3428082719339 461.0792971289228 743.3428082719339 453.42623563963383L743.3428082719339 453.42623563963383L743.3428082719339 387.6099068317484Q743.3428082719339 382.72045088025817 745.4899171897622 380.8922195244836Q747.6370261075906 379.0427296645721 749.6140669923235 379.0427296645721L749.6140669923235 379.0427296645721Q751.7611759101518 379.0427296645721 753.6106657700634 380.5733419624299Q755.4388971258379 382.1039542602877 755.4388971258379 385.93048500493217L755.4388971258379 385.93048500493217L755.4388971258379 448.685589217102Q755.4388971258379 452.97980705275864 754.5247814479507 458.4007256076717Q753.6106657700634 463.84290266672167 751.1446792901813 469.34885523818235Q748.6999513144362 474.85480780964303 744.1931484374105 479.5316787197641Q739.6650870562478 484.20854962988517 732.3946786414233 487.0359306800947Q725.1242702265987 489.86331173030425 714.5800521746894 489.86331173030425L714.5800521746894 489.86331173030425Q703.5468885276312 489.86331173030425 696.2127046003958 487.0359306800947Q688.8572621690237 484.20854962988517 684.4142348044086 479.6804882487225Q679.9712074397936 475.17368537169676 677.7603230095546 469.7315083126468Q675.5494385793155 464.31058975773374 674.7841324303865 458.86841269868376Q674.0188262814577 453.42623563963383 674.0188262814577 449.15327630811413L674.0188262814577 449.15327630811413L674.0188262814577 386.6957911538611Q674.0188262814577 382.4228318223414 675.6132140917263 380.7221514913883Q677.2288604061316 379.0427296645721 680.7365135887225 379.0427296645721L680.7365135887225 379.0427296645721Q690.5366839958398 379.0427296645721 690.5366839958398 390.84119946055927L690.5366839958398 390.84119946055927ZM813.7509739733928 410.7391593327107L813.7509739733928 410.7391593327107Q817.4286951890788 410.7391593327107 821.106416404765 411.419431465092Q824.784137620451 412.0997035974732 827.6752941830714 413.33269683741423L827.6752941830714 413.33269683741423L827.6752941830714 383.7833760871039Q827.6752941830714 376.89562074674376 830.0562466464057 374.06823969653425Q832.43719910974 371.2408586463247 837.4754645901887 371.2408586463247L837.4754645901887 371.2408586463247Q841.1531858058747 371.2408586463247 842.3861790458158 373.06909000209924Q843.5979137816198 374.9185798620108 843.5979137816198 378.4262330446016L843.5979137816198 378.4262330446016L843.5979137816198 480.38201888524065Q843.5979137816198 483.74086253887305 842.4499545582265 485.6541279111953Q841.3019953348331 487.56739328351756 837.624274119147 487.56739328351756L837.624274119147 487.56739328351756Q832.5860086386986 487.56739328351756 830.4388997208702 483.3582094644086Q828.2917908030419 479.1490256452996 828.2917908030419 471.64477368496904L828.2917908030419 471.64477368496904L827.8453622161667 471.49596415601064Q825.3793757362846 475.47130442961355 822.1693416116107 479.2340596618473Q818.9593074869367 482.97555638994413 814.4525046099109 485.2714748367308Q809.9244432287483 487.56739328351756 803.5043749794003 487.56739328351756L803.5043749794003 487.56739328351756Q797.0630482259153 487.56739328351756 791.0256330510318 484.35735915884356Q784.9882178761483 481.1473250341695 781.1616871315038 473.49426354488054Q777.3351563868592 465.84120205559157 777.3351563868592 452.5121199617465L777.3351563868592 452.5121199617465Q777.3351563868592 430.4670511717668 787.1991023063873 420.6031052522388Q797.0630482259153 410.7391593327107 813.7509739733928 410.7391593327107ZM793.8530141012413 451.3003852259424L793.8530141012413 451.3003852259424Q793.8530141012413 461.0792971289228 796.0001230190696 466.7553177334788Q798.1472319368979 472.41007983389795 801.7399191360364 474.85480780964303Q805.3326063351749 477.32079428952505 809.6268241708315 477.32079428952505L809.6268241708315 477.32079428952505Q813.8997835023512 477.32079428952505 818.0451918090494 474.3233452062202Q822.1693416116107 471.34715462705225 824.9967226618202 466.8190932458896Q827.8453622161667 462.31229036886384 827.8453622161667 457.86926300424886L827.8453622161667 457.86926300424886L827.8453622161667 425.8752142781934Q827.8453622161667 422.8139896824778 824.2314165128913 419.83779910330986Q820.6387293137528 416.8616085241419 813.7509739733928 416.8616085241419L813.7509739733928 416.8616085241419Q807.77733431092 416.8616085241419 803.2705314338941 419.7527650867622Q798.7637285568685 422.66518015351943 796.2977420769864 430.16943211385Q793.8530141012413 437.67368407418064 793.8530141012413 451.3003852259424ZM928.8657738747816 418.39222082199973L902.3776777201867 486.3344000435765Q900.0817592734002 492.01042064813254 897.1055686942321 498.13286983956374Q894.1081196109274 504.255319030995 890.2815888662828 509.5274280569496Q886.4550581216383 514.8207955870412 881.6293776825588 518.0308297117151Q876.8249557476163 521.2408638363892 871.0001256141019 521.2408638363892L871.0001256141019 521.2408638363892Q867.9389010183863 521.2408638363892 865.791792100558 519.6252175219837Q863.6446831827298 518.0308297117151 863.6446831827298 515.7349112649284L863.6446831827298 515.7349112649284Q863.6446831827298 511.90838052028397 865.9406016295163 510.3777682224262Q868.2365200763031 508.84715592456837 871.9142412919891 508.84715592456837L871.9142412919891 508.84715592456837Q876.2084591276458 508.84715592456837 879.5673027812782 507.46535315566894Q882.9474049390475 506.08355038676956 885.0732553527389 503.17113532001235L885.0732553527389 503.17113532001235Q887.2203642705672 500.2799787573921 888.6872010560143 496.75106707066436Q890.1327793373243 493.22215538393664 891.5145821062238 488.94919605241694L891.5145821062238 488.94919605241694L861.1999552069846 418.39222082199973Q860.7535266201094 417.30803711101714 860.5834585870141 416.39392143312983Q860.4346490580557 415.4798057552425 860.4346490580557 414.863309135272L860.4346490580557 414.863309135272Q860.4346490580557 412.2697716305685 862.2841389179672 411.5044654816396Q864.1123702737418 410.7391593327107 866.1106696626117 410.7391593327107L866.1106696626117 410.7391593327107Q869.6183228452024 410.7391593327107 873.0622005153825 413.09885329190814Q876.5060781855626 415.4798057552425 878.6531871033909 420.9857583267032L878.6531871033909 420.9857583267032L898.6999565045007 471.0282770649985L899.4652626534296 471.0282770649985L908.6489364405763 444.24256185248703Q911.4125419783752 436.1430717763228 912.8581202596854 431.0835477917373Q914.3249570451324 426.0452823112887 915.8555693429902 420.3692617067327L915.8555693429902 420.3692617067327Q916.9184945498359 416.69154049104657 918.7467259056104 413.71534991187866Q920.596215765522 410.7391593327107 924.7203655680833 410.7391593327107L924.7203655680833 410.7391593327107Q926.7186649569531 410.7391593327107 928.1642432382633 411.5044654816396Q929.6310800237104 412.2697716305685 929.6310800237104 414.2468125153015L929.6310800237104 414.2468125153015Q929.6310800237104 415.6286152842009 929.3972364782044 416.47895544967747Q929.1633929326983 417.30803711101714 928.8657738747816 418.39222082199973L928.8657738747816 418.39222082199973ZM991.3020005248976 473.17538598282687L990.8555719380224 473.0265764538684Q985.796047953437 480.53082841419905 979.2909456875414 484.03848159678984Q972.7858434216457 487.56739328351756 963.8997886924155 487.56739328351756L963.8997886924155 487.56739328351756Q952.2713869295237 487.56739328351756 946.5315908125569 481.8275971665508Q940.7917946955902 476.0878010495841 940.7917946955902 466.9041272624372L940.7917946955902 466.9041272624372Q940.7917946955902 462.01467131094705 942.4712165224064 457.1889908718676Q944.1718968533596 452.3633104327881 948.4448561848792 448.5367796881436Q952.7390740205358 444.71024894349915 960.2433259808664 442.4143304967124Q967.7263194370602 440.1184120499257 979.3759797040889 440.1184120499257L979.3759797040889 440.1184120499257L990.5366943759686 440.1184120499257L990.5366943759686 435.82419421426914Q990.5366943759686 425.27997616235984 986.9440071768303 421.07079234325084Q983.3513199776919 416.8616085241419 975.2305713973907 416.8616085241419L975.2305713973907 416.8616085241419Q970.4899249748589 416.8616085241419 967.1948568336373 418.8386494088749Q963.8997886924155 420.8369487977448 961.7739382787242 423.28167677348995L961.7739382787242 423.28167677348995Q959.4780198319374 425.72640474923503 957.1821013851509 427.1932415346821Q954.8861829383641 428.63881981599224 952.4201964584821 428.63881981599224L952.4201964584821 428.63881981599224Q949.6778494248202 428.63881981599224 948.3810806724684 427.02317350158677Q947.0630534159798 425.42878569131824 947.0630534159798 423.4304863024483L947.0630534159798 423.4304863024483Q947.0630534159798 420.2204521777743 949.5290398958618 418.3071868054521Q951.9737678716069 416.39392143312983 955.4814210541977 414.863309135272L955.4814210541977 414.863309135272Q960.6897545677416 412.7162002174437 967.046047304679 411.71705052300877Q973.4023400416161 410.7391593327107 978.2917959931063 410.7391593327107L978.2917959931063 410.7391593327107Q989.6225786980815 410.7391593327107 995.7450278895126 413.86415944083706Q1001.8674770809438 417.0104180531003 1004.2484295442782 423.1328672445315Q1006.6081235034757 429.2553164359627 1006.6081235034757 438.4389902231095L1006.6081235034757 438.4389902231095L1006.6081235034757 480.38201888524065Q1006.6081235034757 483.74086253887305 1005.4601642800824 485.6541279111953Q1004.312205056689 487.56739328351756 1000.6344838410027 487.56739328351756L1000.6344838410027 487.56739328351756Q995.5962183605543 487.56739328351756 993.449109442726 484.12351561333753Q991.3020005248976 480.67963794315745 991.3020005248976 473.17538598282687L991.3020005248976 473.17538598282687ZM990.6855039049271 446.5384802992737L981.8207076798341 446.5384802992737Q972.0205372727168 446.5384802992737 966.514584701256 449.00446677915573Q961.0086321297954 451.4491947549009 958.8615232119671 455.5733445574621Q956.7144142941388 459.71875286416036 956.7144142941388 464.7570183446089L956.7144142941388 464.7570183446089Q956.7144142941388 471.79358321392743 960.3921355098248 474.55718875172624Q964.0698567255108 477.32079428952505 970.0222378838469 477.32079428952505L970.0222378838469 477.32079428952505Q973.8487686284914 477.32079428952505 978.6744490675708 475.4075289172028Q983.5001295066502 473.49426354488054 987.0928167057887 469.49766476714075Q990.6855039049271 465.52232449353784 990.6855039049271 459.39987530210664L990.6855039049271 459.39987530210664L990.6855039049271 446.5384802992737ZM1116.663399420279 475.02487584273837L1116.663399420279 436.75956839629333Q1116.663399420279 427.7247041381049 1113.7509843535217 424.3446019803356Q1110.8385692867646 420.9857583267032 1105.4814262442621 420.9857583267032L1105.4814262442621 420.9857583267032Q1101.824963532713 420.9857583267032 1098.0622083004791 423.6643298479544Q1094.3207115723824 426.3429013692055 1091.705915563542 430.7008947172729Q1089.1123780588384 435.0588880653402 1089.1123780588384 440.1184120499257L1089.1123780588384 440.1184120499257L1089.1123780588384 476.70429766955453Q1089.1123780588384 483.59205300991465 1086.8164596120519 485.5690938946476Q1084.520541165265 487.56739328351756 1079.4610171806796 487.56739328351756L1079.4610171806796 487.56739328351756Q1075.8045544691304 487.56739328351756 1074.5715612291895 485.6541279111953Q1073.3385679892483 483.74086253887305 1073.3385679892483 480.38201888524065L1073.3385679892483 480.38201888524065L1073.3385679892483 436.75956839629333Q1073.3385679892483 427.7247041381049 1070.4474114266282 424.3446019803356Q1067.534996359871 420.9857583267032 1062.1778533173685 420.9857583267032L1062.1778533173685 420.9857583267032Q1058.5001321016825 420.9857583267032 1054.7586353735855 423.28167677348995Q1050.9958801413518 425.57759522027663 1048.4023426366484 429.55293549387954Q1045.787546627808 433.5282757674824 1045.787546627808 438.5877997520679L1045.787546627808 438.5877997520679L1045.787546627808 476.70429766955453Q1045.787546627808 483.59205300991465 1043.4916281810213 485.5690938946476Q1041.1957097342345 487.56739328351756 1036.157444253786 487.56739328351756L1036.157444253786 487.56739328351756Q1032.4797230380998 487.56739328351756 1031.2467297981589 485.6541279111953Q1030.0349950623547 483.74086253887305 1030.0349950623547 480.38201888524065L1030.0349950623547 480.38201888524065L1030.0349950623547 417.30803711101714Q1030.0349950623547 413.630315895331 1031.6293828726232 412.18473761402083Q1033.2450291870289 410.7391593327107 1036.603872840661 410.7391593327107L1036.603872840661 410.7391593327107Q1040.7492811473594 410.7391593327107 1043.1089751065567 413.9491934573847Q1045.489927569891 417.15922758205875 1045.489927569891 423.8981733934604L1045.489927569891 423.8981733934604L1045.489927569891 424.9610986003061L1045.787546627808 424.9610986003061Q1049.6140773724524 418.8386494088749 1054.8224108859963 414.77827511872437Q1060.0307443995403 410.7391593327107 1069.5120372446038 410.7391593327107L1069.5120372446038 410.7391593327107Q1085.9023439341645 410.7391593327107 1088.4958814388679 426.4917108981639L1088.4958814388679 426.4917108981639L1088.8147590009216 426.4917108981639Q1091.4082965056252 422.3675610956026 1094.5545551178884 418.77487389646416Q1097.6795552260148 415.1609281931888 1102.12258259063 412.95004376294975Q1106.5656099552448 410.7391593327107 1112.8368686756344 410.7391593327107L1112.8368686756344 410.7391593327107Q1123.0834676696268 410.7391593327107 1127.760338579748 416.62776497863587Q1132.437209489869 422.51637062456103 1132.437209489869 433.8471533295361L1132.437209489869 433.8471533295361L1132.437209489869 480.38201888524065Q1132.437209489869 483.74086253887305 1131.2042162499279 485.6541279111953Q1129.971223009987 487.56739328351756 1126.3147602984377 487.56739328351756L1126.3147602984377 487.56739328351756Q1121.2552363138523 487.56739328351756 1118.9593178670657 484.740012233308Q1116.663399420279 481.9126311830985 1116.663399420279 475.02487584273837L1116.663399420279 475.02487584273837ZM1173.5936734989343 420.9857583267032L1173.5936734989343 477.1507262564297Q1173.5936734989343 484.03848159678984 1171.2339795397368 485.8029374401537Q1168.8530270764024 487.56739328351756 1163.8147615959538 487.56739328351756L1163.8147615959538 487.56739328351756Q1160.1370403802678 487.56739328351756 1158.9040471403268 485.6541279111953Q1157.6923124045227 483.74086253887305 1157.6923124045227 480.38201888524065L1157.6923124045227 480.38201888524065L1157.6923124045227 417.9245337309876Q1157.6923124045227 414.3956220442599 1158.9040471403268 412.5673906884853Q1160.1370403802678 410.7391593327107 1163.8147615959538 410.7391593327107L1163.8147615959538 410.7391593327107Q1173.5936734989343 410.7391593327107 1173.5936734989343 420.9857583267032L1173.5936734989343 420.9857583267032ZM1155.8428225446112 391.2876280474345L1155.8428225446112 391.2876280474345Q1155.8428225446112 387.3122877738316 1158.6702035948208 384.5486822360328Q1161.5188431491672 381.8063352023709 1165.3453738938117 381.8063352023709L1165.3453738938117 381.8063352023709Q1169.3207141674145 381.8063352023709 1172.0630612010764 384.5486822360328Q1174.8266667388752 387.3122877738316 1174.8266667388752 391.2876280474345L1174.8266667388752 391.2876280474345Q1174.8266667388752 395.11415879207897 1172.0630612010764 397.94153984228853Q1169.3207141674145 400.790179396635 1165.3453738938117 400.790179396635L1165.3453738938117 400.790179396635Q1161.5188431491672 400.790179396635 1158.6702035948208 397.94153984228853Q1155.8428225446112 395.11415879207897 1155.8428225446112 391.2876280474345ZM1285.9448678625242 468.9024266513071L1285.9448678625242 468.9024266513071Q1285.9448678625242 464.31058975773374 1283.2662963412731 461.5469842199349Q1280.587724820022 458.7833786821361 1275.9958879264486 456.8063377974031Q1271.404051032875 454.8080384085332 1265.8980984614145 452.97980705275864L1265.8980984614145 452.97980705275864Q1258.8615335920958 450.5350790770135 1253.2705470040876 448.0053170847208Q1247.6795604160793 445.475555092428 1244.3844922748576 441.56399033123586Q1241.1106826377727 437.67368407418064 1241.1106826377727 431.0835477917373L1241.1106826377727 431.0835477917373Q1241.1106826377727 424.6634795423893 1244.1719072334884 420.6031052522388Q1247.233131829204 416.5427309620882 1251.8887442351881 414.3956220442599Q1256.5656151453095 412.2697716305685 1261.306261567841 411.5044654816396Q1266.0469079903728 410.7391593327107 1269.427010148142 410.7391593327107L1269.427010148142 410.7391593327107Q1275.2305817775195 410.7391593327107 1280.4389152910635 411.653275010598Q1285.6472488046077 412.5673906884853 1289.3249700202934 414.5656900773552L1289.3249700202934 414.5656900773552Q1292.386194616009 416.09630237521304 1294.8946981041652 418.6898398799165Q1297.4244600964578 421.28337738462 1297.4244600964578 424.8122890713477L1297.4244600964578 424.8122890713477Q1297.4244600964578 427.2570170470928 1295.596228740683 428.78762934495063Q1293.7467388807715 430.3182416428084 1291.450820433985 430.3182416428084L1291.450820433985 430.3182416428084Q1288.0919767803528 430.3182416428084 1286.263745424578 428.78762934495063Q1284.4142555646665 427.2570170470928 1283.2025208288624 424.8122890713477L1283.2025208288624 424.8122890713477Q1281.6719085310046 421.7510644756321 1278.6744594476997 419.30633649988704Q1275.6982688685316 416.8616085241419 1269.5758196771008 416.8616085241419L1269.5758196771008 416.8616085241419Q1264.3674861635566 416.8616085241419 1260.3921458899538 419.5401800453931Q1256.416805616351 422.21875156664424 1256.416805616351 428.1711327249801L1256.416805616351 428.1711327249801Q1256.416805616351 432.3165410316783 1258.8615335920958 434.91007853638183Q1261.306261567841 437.52487454522225 1265.51544538695 439.3531059009968Q1269.724629206059 441.1813372567714 1274.932962719603 443.03082711668293L1274.932962719603 443.03082711668293Q1281.2042214399926 445.1779360345112 1287.3266706314237 447.8565075557624Q1293.449119822855 450.5350790770135 1297.5094941130055 454.5104193506164Q1301.5698684031559 458.4857596242193 1301.5698684031559 464.7570183446089L1301.5698684031559 464.7570183446089Q1301.5698684031559 471.64477368496904 1297.5094941130055 476.7680731819653Q1293.449119822855 481.9126311830985 1286.3275209369888 484.740012233308Q1279.2059220511226 487.56739328351756 1269.8734387350173 487.56739328351756L1269.8734387350173 487.56739328351756Q1262.8368738656989 487.56739328351756 1257.0120437321843 486.1218150022074Q1251.2084721028068 484.65497821676036 1247.5307508871208 482.67793733202734L1247.5307508871208 482.67793733202734Q1244.4695262914051 480.97725700107424 1242.2586418611663 478.4687535129184Q1240.0264989267903 475.9389915206257 1240.0264989267903 472.55888936285635L1240.0264989267903 472.55888936285635Q1240.0264989267903 469.96535185815287 1242.02479831566 468.43473956029504Q1244.001839200393 466.9041272624372 1246.0001385892629 466.9041272624372L1246.0001385892629 466.9041272624372Q1249.3589822428953 466.9041272624372 1251.357281631765 468.3497055437474Q1253.3555810206353 469.8165423291945 1254.418506227481 472.41007983389795L1254.418506227481 472.41007983389795Q1255.9491185253387 475.47130442961355 1259.2441866665604 478.4687535129184Q1262.539254807782 481.44494409208636 1270.192316297071 481.44494409208636L1270.192316297071 481.44494409208636Q1276.3147654885022 481.44494409208636 1281.1191874234446 478.53252902532915Q1285.9448678625242 475.62011395857195 1285.9448678625242 468.9024266513071ZM1365.2390882932132 473.17538598282687L1364.7714012022009 473.0265764538684Q1359.7331357217524 480.53082841419905 1353.2280334558568 484.03848159678984Q1346.7229311899612 487.56739328351756 1337.836876460731 487.56739328351756L1337.836876460731 487.56739328351756Q1326.2084746978392 487.56739328351756 1320.4686785808724 481.8275971665508Q1314.7288824639056 476.0878010495841 1314.7288824639056 466.9041272624372L1314.7288824639056 466.9041272624372Q1314.7288824639056 462.01467131094705 1316.4083042907218 457.1889908718676Q1318.087726117538 452.3633104327881 1322.3819439531947 448.5367796881436Q1326.6549032847145 444.71024894349915 1334.1591552450452 442.4143304967124Q1341.6634072053755 440.1184120499257 1353.2918089682673 440.1184120499257L1353.2918089682673 440.1184120499257L1364.4737821442843 440.1184120499257L1364.4737821442843 435.82419421426914Q1364.4737821442843 425.27997616235984 1360.8810949451458 421.07079234325084Q1357.2671492418706 416.8616085241419 1349.1676591657063 416.8616085241419L1349.1676591657063 416.8616085241419Q1344.4270127431744 416.8616085241419 1341.1319446019527 418.8386494088749Q1337.836876460731 420.8369487977448 1335.689767542903 423.28167677348995L1335.689767542903 423.28167677348995Q1333.3938490961161 425.72640474923503 1331.0979306493293 427.1932415346821Q1328.8020122025425 428.63881981599224 1326.3572842267974 428.63881981599224L1326.3572842267974 428.63881981599224Q1323.5936786889986 428.63881981599224 1322.2969099366471 427.02317350158677Q1321.0001411842952 425.42878569131824 1321.0001411842952 423.4304863024483L1321.0001411842952 423.4304863024483Q1321.0001411842952 420.2204521777743 1323.4448691600403 418.3071868054521Q1325.8895971357854 416.39392143312983 1329.418508822513 414.863309135272L1329.418508822513 414.863309135272Q1334.6268423360573 412.7162002174437 1340.9831350729944 411.71705052300877Q1347.3181693057948 410.7391593327107 1352.2288837614217 410.7391593327107L1352.2288837614217 410.7391593327107Q1363.559666466397 410.7391593327107 1369.6821156578283 413.86415944083706Q1375.8045648492591 417.0104180531003 1378.1642588084567 423.1328672445315Q1380.545211271791 429.2553164359627 1380.545211271791 438.4389902231095L1380.545211271791 438.4389902231095L1380.545211271791 480.38201888524065Q1380.545211271791 483.74086253887305 1379.3972520483978 485.6541279111953Q1378.2492928250044 487.56739328351756 1374.5715716093184 487.56739328351756L1374.5715716093184 487.56739328351756Q1369.5120476247328 487.56739328351756 1367.3861972110415 484.12351561333753Q1365.2390882932132 480.67963794315745 1365.2390882932132 473.17538598282687L1365.2390882932132 473.17538598282687ZM1364.6225916732426 446.5384802992737L1355.7365369440124 446.5384802992737Q1345.957625041032 446.5384802992737 1340.4304139654346 449.00446677915573Q1334.9244613939738 451.4491947549009 1332.7773524761456 455.5733445574621Q1330.651502062454 459.71875286416036 1330.651502062454 464.7570183446089L1330.651502062454 464.7570183446089Q1330.651502062454 471.79358321392743 1334.3079647740035 474.55718875172624Q1337.9856859896895 477.32079428952505 1343.9593256521623 477.32079428952505L1343.9593256521623 477.32079428952505Q1347.7858563968068 477.32079428952505 1352.6115368358862 475.4075289172028Q1357.4372172749656 473.49426354488054 1361.0299044741041 469.49766476714075Q1364.6225916732426 465.52232449353784 1364.6225916732426 459.39987530210664L1364.6225916732426 459.39987530210664L1364.6225916732426 446.5384802992737ZM1419.8734439250818 383.7833760871039L1419.8734439250818 426.3429013692055L1420.1923214871356 426.3429013692055Q1424.01885223178 420.2204521777743 1430.5877300100863 415.4798057552425Q1437.1778662925296 410.7391593327107 1446.6591591375934 410.7391593327107L1446.6591591375934 410.7391593327107Q1468.236540836561 410.7391593327107 1468.236540836561 433.8471533295361L1468.236540836561 433.8471533295361L1468.236540836561 480.38201888524065Q1468.236540836561 483.74086253887305 1467.024806100757 485.6541279111953Q1465.791812860816 487.56739328351756 1462.1140916451297 487.56739328351756L1462.1140916451297 487.56739328351756Q1457.0758261646813 487.56739328351756 1454.694873701347 484.740012233308Q1452.3351797421494 481.9126311830985 1452.3351797421494 475.02487584273837L1452.3351797421494 475.02487584273837L1452.3351797421494 436.75956839629333Q1452.3351797421494 427.7247041381049 1448.508648997505 424.3446019803356Q1444.6821182528604 420.9857583267032 1439.3249752103582 420.9857583267032L1439.3249752103582 420.9857583267032Q1435.0307573747014 420.9857583267032 1430.5239544976757 423.6643298479544Q1425.9958931165131 426.3429013692055 1422.9346685207975 430.7008947172729Q1419.8734439250818 435.0588880653402 1419.8734439250818 440.1184120499257L1419.8734439250818 440.1184120499257L1419.8734439250818 476.70429766955453Q1419.8734439250818 483.59205300991465 1417.5137499658842 485.5690938946476Q1415.13279750255 487.56739328351756 1410.0732735179647 487.56739328351756L1410.0732735179647 487.56739328351756Q1406.4168108064152 487.56739328351756 1405.1838175664743 485.6541279111953Q1403.9508243265334 483.74086253887305 1403.9508243265334 480.38201888524065L1403.9508243265334 480.38201888524065L1403.9508243265334 378.4262330446016Q1403.9508243265334 374.9185798620108 1405.1838175664743 373.06909000209924Q1406.4168108064152 371.2408586463247 1410.0732735179647 371.2408586463247L1410.0732735179647 371.2408586463247Q1415.13279750255 371.2408586463247 1417.5137499658842 374.06823969653425Q1419.8734439250818 376.89562074674376 1419.8734439250818 383.7833760871039L1419.8734439250818 383.7833760871039ZM1537.581781331174 473.17538598282687L1537.1140942401619 473.0265764538684Q1532.0758287597134 480.53082841419905 1525.5707264938176 484.03848159678984Q1519.0656242279222 487.56739328351756 1510.179569498692 487.56739328351756L1510.179569498692 487.56739328351756Q1498.5511677358002 487.56739328351756 1492.8113716188334 481.8275971665508Q1487.0715755018666 476.0878010495841 1487.0715755018666 466.9041272624372L1487.0715755018666 466.9041272624372Q1487.0715755018666 462.01467131094705 1488.7509973286828 457.1889908718676Q1490.430419155499 452.3633104327881 1494.7246369911556 448.5367796881436Q1499.0188548268122 444.71024894349915 1506.501848283006 442.4143304967124Q1514.0061002433365 440.1184120499257 1525.6345020062286 440.1184120499257L1525.6345020062286 440.1184120499257L1536.8164751822453 440.1184120499257L1536.8164751822453 435.82419421426914Q1536.8164751822453 425.27997616235984 1533.2237879831068 421.07079234325084Q1529.6311007839683 416.8616085241419 1521.5103522036673 416.8616085241419L1521.5103522036673 416.8616085241419Q1516.7697057811354 416.8616085241419 1513.4746376399137 418.8386494088749Q1510.179569498692 420.8369487977448 1508.0324605808637 423.28167677348995L1508.0324605808637 423.28167677348995Q1505.7365421340771 425.72640474923503 1503.4406236872903 427.1932415346821Q1501.1447052405035 428.63881981599224 1498.6999772647584 428.63881981599224L1498.6999772647584 428.63881981599224Q1495.9576302310968 428.63881981599224 1494.6396029746081 427.02317350158677Q1493.3428342222562 425.42878569131824 1493.3428342222562 423.4304863024483L1493.3428342222562 423.4304863024483Q1493.3428342222562 420.2204521777743 1495.7875621980013 418.3071868054521Q1498.2535486778836 416.39392143312983 1501.7612018604743 414.863309135272L1501.7612018604743 414.863309135272Q1506.969535374018 412.7162002174437 1513.3258281109554 411.71705052300877Q1519.6821208478925 410.7391593327107 1524.5715767993827 410.7391593327107L1524.5715767993827 410.7391593327107Q1535.902359504358 410.7391593327107 1542.024808695789 413.86415944083706Q1548.1472578872203 417.0104180531003 1550.5069518464177 423.1328672445315Q1552.887904309752 429.2553164359627 1552.887904309752 438.4389902231095L1552.887904309752 438.4389902231095L1552.887904309752 480.38201888524065Q1552.887904309752 483.74086253887305 1551.7399450863588 485.6541279111953Q1550.5919858629654 487.56739328351756 1546.9142646472794 487.56739328351756L1546.9142646472794 487.56739328351756Q1541.8759991668305 487.56739328351756 1539.7288902490025 484.12351561333753Q1537.581781331174 480.67963794315745 1537.581781331174 473.17538598282687L1537.581781331174 473.17538598282687ZM1536.9652847112036 446.5384802992737L1528.1004884861104 446.5384802992737Q1518.3003180789933 446.5384802992737 1512.7943655075326 449.00446677915573Q1507.2671544319348 451.4491947549009 1505.1413040182435 455.5733445574621Q1502.994195100415 459.71875286416036 1502.994195100415 464.7570183446089L1502.994195100415 464.7570183446089Q1502.994195100415 471.79358321392743 1506.6719163161013 474.55718875172624Q1510.3283790276505 477.32079428952505 1516.3020186901233 477.32079428952505L1516.3020186901233 477.32079428952505Q1520.1285494347678 477.32079428952505 1524.9542298738472 475.4075289172028Q1529.7799103129266 473.49426354488054 1533.3725975120653 469.49766476714075Q1536.9652847112036 465.52232449353784 1536.9652847112036 459.39987530210664L1536.9652847112036 459.39987530210664L1536.9652847112036 446.5384802992737ZM1637.0715806919313 418.39222082199973L1610.5834845373363 486.3344000435765Q1608.2875660905497 492.01042064813254 1605.3113755113816 498.13286983956374Q1602.335184932214 504.255319030995 1598.5086541875694 509.5274280569496Q1594.6821234429246 514.8207955870412 1589.8564430038452 518.0308297117151Q1585.0307625647658 521.2408638363892 1579.2059324312515 521.2408638363892L1579.2059324312515 521.2408638363892Q1576.1447078355359 521.2408638363892 1574.0188574218446 519.6252175219837Q1571.8717485040163 518.0308297117151 1571.8717485040163 515.7349112649284L1571.8717485040163 515.7349112649284Q1571.8717485040163 511.90838052028397 1574.167666950803 510.3777682224262Q1576.4635853975894 508.84715592456837 1580.1413066132757 508.84715592456837L1580.1413066132757 508.84715592456837Q1584.4142659447955 508.84715592456837 1587.7943681025647 507.46535315566894Q1591.1532117561972 506.08355038676956 1593.3003206740252 503.17113532001235L1593.3003206740252 503.17113532001235Q1595.4474295918537 500.2799787573921 1596.893007873164 496.75106707066436Q1598.3385861544741 493.22215538393664 1599.7203889233735 488.94919605241694L1599.7203889233735 488.94919605241694L1569.427020528271 418.39222082199973Q1568.9593334372591 417.30803711101714 1568.8105239083006 416.39392143312983Q1568.6617143793421 415.4798057552425 1568.6617143793421 414.863309135272L1568.6617143793421 414.863309135272Q1568.6617143793421 412.2697716305685 1570.4899457351169 411.5044654816396Q1572.3181770908914 410.7391593327107 1574.3164764797614 410.7391593327107L1574.3164764797614 410.7391593327107Q1577.845388166489 410.7391593327107 1581.289265836669 413.09885329190814Q1584.7331435068493 415.4798057552425 1586.8589939205406 420.9857583267032L1586.8589939205406 420.9857583267032L1606.9270218257873 471.0282770649985L1607.6923279747161 471.0282770649985L1616.876001761863 444.24256185248703Q1619.6183487955248 436.1430717763228 1621.0851855809717 431.0835477917373Q1622.5307638622821 426.0452823112887 1624.06137616014 420.3692617067327L1624.06137616014 420.3692617067327Q1625.1243013669857 416.69154049104657 1626.9737912268972 413.71534991187866Q1628.8020225826715 410.7391593327107 1632.9474308893698 410.7391593327107L1632.9474308893698 410.7391593327107Q1634.9244717741028 410.7391593327107 1636.3913085595498 411.5044654816396Q1637.83688684086 412.2697716305685 1637.83688684086 414.2468125153015L1637.83688684086 414.2468125153015Q1637.83688684086 415.6286152842009 1637.6030432953542 416.47895544967747Q1637.369199749848 417.30803711101714 1637.0715806919313 418.39222082199973L1637.0715806919313 418.39222082199973ZM1699.5290658461843 473.17538598282687L1699.0613787551722 473.0265764538684Q1694.0018547705865 480.53082841419905 1687.496752504691 484.03848159678984Q1680.9916502387953 487.56739328351756 1672.126854013702 487.56739328351756L1672.126854013702 487.56739328351756Q1660.4984522508103 487.56739328351756 1654.7586561338435 481.8275971665508Q1649.0188600168765 476.0878010495841 1649.0188600168765 466.9041272624372L1649.0188600168765 466.9041272624372Q1649.0188600168765 462.01467131094705 1650.698281843693 457.1889908718676Q1652.3777036705092 452.3633104327881 1656.6719215061657 448.5367796881436Q1660.9448808376853 444.71024894349915 1668.449132798016 442.4143304967124Q1675.9533847583466 440.1184120499257 1687.5817865212387 440.1184120499257L1687.5817865212387 440.1184120499257L1698.7637596972552 440.1184120499257L1698.7637596972552 435.82419421426914Q1698.7637596972552 425.27997616235984 1695.1498139939797 421.07079234325084Q1691.5571267948415 416.8616085241419 1683.4576367186773 416.8616085241419L1683.4576367186773 416.8616085241419Q1678.6957317920085 416.8616085241419 1675.4219221549235 418.8386494088749Q1672.126854013702 420.8369487977448 1669.9797450958738 423.28167677348995L1669.9797450958738 423.28167677348995Q1667.6838266490872 425.72640474923503 1665.3879082023007 427.1932415346821Q1663.0919897555139 428.63881981599224 1660.6472617797688 428.63881981599224L1660.6472617797688 428.63881981599224Q1657.88365624197 428.63881981599224 1656.586887489618 427.02317350158677Q1655.2901187372665 425.42878569131824 1655.2901187372665 423.4304863024483L1655.2901187372665 423.4304863024483Q1655.2901187372665 420.2204521777743 1657.7348467130116 418.3071868054521Q1660.1795746887565 416.39392143312983 1663.7084863754842 414.863309135272L1663.7084863754842 414.863309135272Q1668.9168198890281 412.7162002174437 1675.2518541218285 411.71705052300877Q1681.6081468587656 410.7391593327107 1686.5188613143928 410.7391593327107L1686.5188613143928 410.7391593327107Q1697.828385515231 410.7391593327107 1703.9508347066624 413.86415944083706Q1710.0732838980932 417.0104180531003 1712.454236361428 423.1328672445315Q1714.8351888247623 429.2553164359627 1714.8351888247623 438.4389902231095L1714.8351888247623 438.4389902231095L1714.8351888247623 480.38201888524065Q1714.8351888247623 483.74086253887305 1713.6872296013687 485.6541279111953Q1712.5392703779755 487.56739328351756 1708.8615491622893 487.56739328351756L1708.8615491622893 487.56739328351756Q1703.802025177704 487.56739328351756 1701.6549162598756 484.12351561333753Q1699.5290658461843 480.67963794315745 1699.5290658461843 473.17538598282687L1699.5290658461843 473.17538598282687ZM1698.9125692262135 446.5384802992737L1690.0265144969837 446.5384802992737Q1680.2263440898662 446.5384802992737 1674.7203915184057 449.00446677915573Q1669.2144389469447 451.4491947549009 1667.0673300291166 455.5733445574621Q1664.9202211112884 459.71875286416036 1664.9202211112884 464.7570183446089L1664.9202211112884 464.7570183446089Q1664.9202211112884 471.79358321392743 1668.5979423269746 474.55718875172624Q1672.2756635426606 477.32079428952505 1678.2493032051332 477.32079428952505L1678.2493032051332 477.32079428952505Q1682.0758339497777 477.32079428952505 1686.9015143888575 475.4075289172028Q1691.7059363237997 473.49426354488054 1695.3198820270752 469.49766476714075Q1698.9125692262135 465.52232449353784 1698.9125692262135 459.39987530210664L1698.9125692262135 459.39987530210664L1698.9125692262135 446.5384802992737ZM1754.1634214780527 383.7833760871039L1754.1634214780527 444.8590584724575L1774.9754970280917 425.8752142781934Q1781.2467557484813 420.0716426488159 1786.3913137496145 415.3947717386948Q1791.5146132466105 410.7391593327107 1796.8717562891131 410.7391593327107L1796.8717562891131 410.7391593327107Q1799.6141033227748 410.7391593327107 1800.4644434882514 412.0997035974732Q1801.314783653728 413.4815063663726 1801.314783653728 414.863309135272L1801.314783653728 414.863309135272Q1801.314783653728 418.2221527889044 1797.2544093635772 420.6031052522388Q1793.194035073427 422.9840577155731 1786.00866067515 427.8735136670633L1786.00866067515 427.8735136670633Q1781.4168237815763 430.7859287338205 1777.0375719293722 434.52742546191735Q1772.679578581305 438.2901806941511 1767.0248164808856 442.7119495546292L1767.0248164808856 442.7119495546292Q1774.6778779701751 451.89562334177606 1783.0962456083928 461.5469842199349Q1791.5146132466105 471.19834509809385 1798.6999876448874 479.76552226527014L1798.6999876448874 479.76552226527014Q1799.9329808848286 481.29613456312796 1800.6982870337577 482.4440937865213Q1801.4635931826863 483.59205300991465 1801.4635931826863 484.65497821676036L1801.4635931826863 484.65497821676036Q1801.4635931826863 485.73916192774294 1800.3156339592927 486.65327760563025Q1799.1676747358995 487.56739328351756 1794.1081507513143 487.56739328351756L1794.1081507513143 487.56739328351756Q1788.6021981798533 487.56739328351756 1786.3913137496145 486.1855905146181Q1784.1591708152384 484.80378774571875 1782.4797489884224 482.82674686098574L1782.4797489884224 482.82674686098574Q1776.059680739074 475.02487584273837 1769.3207349276724 466.6702837169312Q1762.5817891162708 458.33695009526093 1755.8428433048691 450.36501104391823L1755.8428433048691 450.36501104391823L1754.1634214780527 452.21450090382973L1754.1634214780527 476.70429766955453Q1754.1634214780527 483.59205300991465 1751.7824690147183 485.5690938946476Q1749.4227750555212 487.56739328351756 1744.3632510709356 487.56739328351756L1744.3632510709356 487.56739328351756Q1740.6855298552493 487.56739328351756 1739.4737951194454 485.6541279111953Q1738.2408018795043 483.74086253887305 1738.2408018795043 480.38201888524065L1738.2408018795043 480.38201888524065L1738.2408018795043 378.4262330446016Q1738.2408018795043 374.9185798620108 1739.4737951194454 373.06909000209924Q1740.6855298552493 371.2408586463247 1744.3632510709356 371.2408586463247L1744.3632510709356 371.2408586463247Q1749.4227750555212 371.2408586463247 1751.7824690147183 374.06823969653425Q1754.1634214780527 376.89562074674376 1754.1634214780527 383.7833760871039L1754.1634214780527 383.7833760871039Z " fill="#080a52" transform="matrix(0.4857161164109686,0,0,0.48571611641096857,0,83.25362691646814)"/></g></svg>